<svg xmlns="http://www.w3.org/2000/svg" width="1400" height="420" viewBox="0 0 1400 420" role="img" aria-label="Traffic Sign Recognition banner">
  <defs>
    <linearGradient id="bg" x1="0" y1="0" x2="1" y2="1">
      <stop offset="0%" stop-color="#07111c"/>
      <stop offset="55%" stop-color="#0e2740"/>
      <stop offset="100%" stop-color="#09192a"/>
    </linearGradient>
    <radialGradient id="glow1" cx="28%" cy="25%" r="55%">
      <stop offset="0%" stop-color="#2bd6c4" stop-opacity="0.38"/>
      <stop offset="100%" stop-color="#2bd6c4" stop-opacity="0"/>
    </radialGradient>
    <radialGradient id="glow2" cx="78%" cy="72%" r="50%">
      <stop offset="0%" stop-color="#ff7a59" stop-opacity="0.26"/>
      <stop offset="100%" stop-color="#ff7a59" stop-opacity="0"/>
    </radialGradient>
  </defs>
  <rect width="1400" height="420" fill="url(#bg)"/>
  <rect width="1400" height="420" fill="url(#glow1)"/>
  <rect width="1400" height="420" fill="url(#glow2)"/>
  <g opacity="0.18" stroke="#b9dbff" stroke-width="1">
    <path d="M0 340H1400"/>
    <path d="M0 280H1400"/>
    <path d="M0 220H1400"/>
    <path d="M0 160H1400"/>
    <path d="M0 100H1400"/>
    <path d="M180 0V420"/>
    <path d="M420 0V420"/>
    <path d="M660 0V420"/>
    <path d="M900 0V420"/>
    <path d="M1140 0V420"/>
  </g>
  <g transform="translate(110 86)">
    <text x="0" y="0" fill="#2bd6c4" font-family="Segoe UI, Arial, sans-serif" font-size="28" font-weight="700" letter-spacing="3">TRAFFIC SIGN INTELLIGENCE</text>
    <text x="0" y="84" fill="#f0f7ff" font-family="Segoe UI, Arial, sans-serif" font-size="72" font-weight="800">Traffic Sign Recognition</text>
    <text x="0" y="138" fill="#acc5dc" font-family="Segoe UI, Arial, sans-serif" font-size="28">Flask app, trained Keras model, and realtime webcam inference.</text>
  </g>
  <g transform="translate(1030 72)">
    <circle cx="140" cy="140" r="120" fill="none" stroke="#f0f7ff" stroke-width="18" opacity="0.9"/>
    <circle cx="140" cy="140" r="62" fill="#ff7a59" opacity="0.95"/>
    <rect x="128" y="44" width="24" height="152" rx="10" fill="#f0f7ff"/>
    <rect x="128" y="196" width="24" height="24" rx="8" fill="#f0f7ff"/>
    <path d="M140 98l36 62H104z" fill="#0e2740"/>
  </g>
</svg>
